<?xml version="1.0" standalone="no"?>
<!DOCTYPE svg PUBLIC "-//W3C//DTD SVG 20010904//EN"
 "http://www.w3.org/TR/2001/REC-SVG-20010904/DTD/svg10.dtd">
<svg version="1.0" xmlns="http://www.w3.org/2000/svg"
 width="904.000000pt" height="547.000000pt" viewBox="0 0 904.000000 547.000000"
 preserveAspectRatio="xMidYMid meet">

<g transform="translate(0.000000,547.000000) scale(0.100000,-0.100000)"
fill="#000000" stroke="none">
<path d="M2985 5233 c-213 -26 -360 -97 -506 -242 -153 -152 -277 -414 -325
-681 -21 -121 -30 -432 -15 -555 36 -310 153 -564 351 -765 116 -118 247 -185
431 -221 171 -33 325 -22 502 37 170 56 365 228 460 404 53 98 103 243 132
381 32 153 45 484 26 645 -31 250 -103 456 -219 619 -118 168 -258 283 -407
336 -109 39 -305 58 -430 42z m297 -511 c208 -102 331 -404 315 -777 -6 -140
-22 -232 -63 -353 -33 -100 -65 -154 -133 -226 -88 -92 -191 -136 -323 -136
-169 0 -308 78 -391 221 -39 66 -84 212 -98 314 -19 142 -7 397 25 515 68 259
174 403 338 462 43 15 74 18 160 15 95 -3 113 -7 170 -35z"/>
<path d="M5090 5225 c-170 -27 -275 -74 -411 -183 -143 -115 -250 -278 -322
-492 -58 -172 -70 -277 -64 -598 4 -260 6 -282 30 -367 84 -294 161 -441 308
-586 71 -69 120 -104 204 -146 195 -97 427 -127 648 -83 255 51 450 215 587
494 63 127 94 237 120 421 44 315 9 653 -97 940 -37 102 -128 266 -188 338
-103 124 -261 217 -429 252 -111 22 -283 27 -386 10z m316 -492 c90 -35 141
-78 204 -174 115 -175 158 -356 147 -624 -9 -213 -45 -346 -130 -482 -149
-240 -446 -303 -670 -143 -91 65 -153 183 -208 395 -20 78 -24 113 -23 260 0
148 4 183 26 275 66 265 146 388 308 471 102 52 244 61 346 22z"/>
<path d="M1540 5154 c-108 -58 -178 -100 -315 -190 -60 -39 -124 -78 -140 -87
-17 -8 -50 -33 -74 -54 l-44 -39 -4 -183 -3 -182 22 7 c13 3 58 24 100 45 79
39 269 119 285 119 4 0 8 -402 8 -892 l0 -893 220 0 220 0 3 1198 2 1197 -97
0 c-97 0 -99 -1 -183 -46z"/>
<path d="M6386 4612 c-5 -9 14 -39 220 -352 295 -450 354 -542 354 -554 0 -7
-35 -64 -78 -127 -121 -176 -502 -765 -502 -776 0 -6 91 -9 236 -8 277 1 232
-21 353 174 155 250 253 393 261 385 10 -10 307 -477 332 -523 l17 -31 226 0
c190 0 225 2 225 14 0 25 -62 124 -322 513 -136 205 -248 375 -248 379 0 4 11
21 24 38 50 66 546 847 546 860 0 3 -100 6 -222 6 l-223 0 -91 -148 c-219
-355 -267 -432 -269 -432 -1 0 -60 102 -130 226 -71 124 -149 255 -174 292
l-46 67 -242 3 c-133 1 -244 -1 -247 -6z"/>
<path d="M7024 2431 c-7 -7 -5 -2158 2 -2175 5 -14 34 -16 220 -16 l214 0 1
313 c1 171 4 394 8 494 l6 182 121 -152 c207 -260 624 -781 649 -809 l23 -28
266 0 c145 0 267 4 270 8 2 4 -55 82 -127 173 -73 90 -233 292 -356 449 -124
157 -260 329 -303 383 -43 53 -78 102 -78 108 0 5 84 117 187 247 301 382 623
802 623 813 0 2 -117 5 -259 7 l-260 3 -78 -98 c-124 -153 -251 -316 -466
-598 -109 -143 -203 -261 -208 -263 -5 -2 -9 186 -9 472 0 372 -3 478 -12 481
-17 6 -428 11 -434 6z"/>
<path d="M451 2407 c-14 -35 -9 -2143 5 -2157 7 -7 81 -10 220 -8 l209 3 3
433 2 432 439 0 c242 0 446 3 455 6 14 5 16 32 16 200 l0 194 -455 0 -455 0 2
258 3 257 470 2 470 2 3 201 2 200 -690 0 -690 0 -9 -23z"/>
<path d="M2557 1889 c-274 -38 -492 -215 -587 -476 -53 -147 -63 -212 -64
-388 0 -233 37 -367 138 -509 98 -137 226 -227 395 -279 84 -26 116 -30 256
-34 123 -4 180 -2 247 11 138 26 343 103 435 163 l22 15 -66 126 c-36 70 -69
131 -74 136 -4 4 -44 -6 -89 -23 -350 -136 -728 -74 -843 137 -23 43 -56 153
-57 190 0 9 118 12 555 12 538 0 555 1 565 19 13 26 13 241 -1 317 -36 198
-210 443 -370 521 -37 18 -93 39 -125 48 -74 19 -249 27 -337 14z m269 -387
c23 -11 55 -33 72 -47 35 -29 92 -136 92 -172 l0 -23 -346 0 -345 0 6 23 c14
49 56 124 87 155 68 70 140 93 283 89 88 -3 118 -8 151 -25z"/>
<path d="M4271 1874 c-112 -30 -196 -96 -268 -209 -32 -51 -43 -56 -43 -19 0
14 -12 70 -27 125 l-26 99 -161 -2 -161 -3 3 -805 3 -805 27 -8 c28 -8 275 -7
318 1 l23 4 3 487 3 486 33 67 c43 87 102 147 187 189 64 31 77 34 165 34 83
0 102 -3 145 -26 65 -33 108 -90 128 -172 15 -57 17 -134 17 -567 l0 -500 73
-1 c81 -2 255 -1 275 0 9 1 12 116 12 539 0 633 -3 666 -75 809 -75 148 -183
244 -310 277 -76 20 -270 20 -344 0z"/>
<path d="M5858 1875 c-193 -33 -336 -110 -475 -259 -135 -145 -205 -343 -204
-579 1 -162 24 -262 94 -402 59 -120 120 -199 205 -267 89 -71 164 -109 277
-139 109 -30 385 -33 485 -6 150 40 296 134 395 254 66 80 149 242 170 333 51
222 15 494 -91 686 -105 190 -300 339 -498 378 -92 19 -250 19 -358 1z m285
-371 c108 -37 201 -163 243 -329 44 -177 -3 -373 -119 -493 -77 -80 -230 -123
-345 -97 -157 37 -254 131 -307 295 -33 108 -40 200 -21 283 54 230 232 376
441 362 33 -2 82 -12 108 -21z"/>
</g>
</svg>
